<svg viewBox="0 0 200 200" xmlns="http://www.w3.org/2000/svg">
  <defs>
    <linearGradient id="grad1" x1="0%" y1="0%" x2="100%" y2="100%">
      <stop offset="0%" style="stop-color:#B923E1;stop-opacity:1"></stop>
      <stop offset="100%" style="stop-color:#DA7C25;stop-opacity:1"></stop>
    </linearGradient>
  </defs>
  <path fill="url(#grad1)" d="M47.8,-67.1C60.3,-55.6,65.9,-36.1,69.6,-17.3C73.3,1.6,75.1,19.5,66.7,34.3C58.3,49.1,39.7,60.8,21,66.4C2.3,72,-16.6,71.6,-34.1,65C-51.6,58.4,-67.7,45.7,-71.9,29.7C-76.2,13.8,-68.6,-5.3,-60.1,-22.7C-51.7,-40.1,-42.4,-55.8,-28.6,-66.1C-14.9,-76.5,3.2,-81.5,21.1,-76.2C38.9,-70.9,55.4,-55.7,47.8,-67.1Z" transform="translate(100 100)"></path>
</svg>
